<?xml version="1.0" standalone="no"?><!DOCTYPE svg PUBLIC "-//W3C//DTD SVG 1.1//EN" "http://www.w3.org/Graphics/SVG/1.1/DTD/svg11.dtd"><svg t="1519734370486" class="icon" style="" viewBox="0 0 1024 1024" version="1.1" xmlns="http://www.w3.org/2000/svg" p-id="9748" xmlns:xlink="http://www.w3.org/1999/xlink" width="200" height="200"><defs><style type="text/css"></style></defs><path d="M513.1 870.03c-196.82 0-356.938-160.347-356.938-357.451 0-197.105 160.118-357.451 356.938-357.451 196.818 0 356.936 160.346 356.936 357.451 0 197.104-160.118 357.451-356.936 357.451z m0-672.839c-173.684 0-314.94 141.457-314.94 315.388 0 173.931 141.256 315.393 314.94 315.393 173.679 0 314.939-141.462 314.939-315.393 0-173.931-141.26-315.388-314.939-315.388z m0 525.659c-23.176 0-41.999-18.811-41.999-42.059V512.579c0-23.205 18.823-42.057 41.999-42.057 23.189 0 41.998 18.852 41.998 42.057v168.212c0 23.248-18.809 42.059-41.998 42.059z m0-336.424c-10.996 0-21.915-4.54-29.687-12.328-7.787-7.782-12.312-18.72-12.312-29.728 0-11.01 4.525-21.958 12.312-29.74 7.772-7.788 18.691-12.317 29.687-12.317 10.98 0 21.913 4.529 29.686 12.317 7.772 7.782 12.312 18.73 12.312 29.74 0 11.008-4.54 21.946-12.312 29.728-7.773 7.788-18.706 12.328-29.686 12.328z" fill="#ffffff" p-id="9749"></path></svg>